<svg width="24" height="24" viewBox="0 0 24 24" fill="none" xmlns="http://www.w3.org/2000/svg">
  <path d="M12 0C5.373 0 0 5.373 0 12C0 18.627 5.373 24 12 24C18.627 24 24 18.627 24 12C24 5.373 18.627 0 12 0ZM12 22C6.486 22 2 17.514 2 12C2 6.486 6.486 2 12 2C17.514 2 22 6.486 22 12C22 17.514 17.514 22 12 22Z" fill="#00B22D"/>
  <path d="M7.5 7.5H9.5V16.5H7.5V7.5Z" fill="#00B22D"/>
  <path d="M10.5 7.5H12.5V16.5H10.5V7.5Z" fill="#00B22D"/>
  <path d="M13.5 7.5H15.5V16.5H13.5V7.5Z" fill="#00B22D"/>
  <path d="M16.5 7.5H18.5V16.5H16.5V7.5Z" fill="#00B22D"/>
</svg> 