<svg width="24" height="24" viewBox="0 0 24 24" fill="none" xmlns="http://www.w3.org/2000/svg">
  <path d="M12 0C5.373 0 0 5.373 0 12C0 18.627 5.373 24 12 24C18.627 24 24 18.627 24 12C24 5.373 18.627 0 12 0ZM12 22C6.486 22 2 17.514 2 12C2 6.486 6.486 2 12 2C17.514 2 22 6.486 22 12C22 17.514 17.514 22 12 22Z" fill="#14A800"/>
  <path d="M7.5 14.5H9.5V17.5H7.5V14.5Z" fill="#14A800"/>
  <path d="M8.5 7.5C7.672 7.5 7 8.172 7 9C7 9.828 7.672 10.5 8.5 10.5C9.328 10.5 10 9.828 10 9C10 8.172 9.328 7.5 8.5 7.5Z" fill="#14A800"/>
  <path d="M15.5 7.5C14.672 7.5 14 8.172 14 9C14 9.828 14.672 10.5 15.5 10.5C16.328 10.5 17 9.828 17 9C17 8.172 16.328 7.5 15.5 7.5Z" fill="#14A800"/>
  <path d="M12 7.5C11.172 7.5 10.5 8.172 10.5 9C10.5 9.828 11.172 10.5 12 10.5C12.828 10.5 13.5 9.828 13.5 9C13.5 8.172 12.828 7.5 12 7.5Z" fill="#14A800"/>
  <path d="M8.5 11.5C7.672 11.5 7 12.172 7 13C7 13.828 7.672 14.5 8.5 14.5C9.328 14.5 10 13.828 10 13C10 12.172 9.328 11.5 8.5 11.5Z" fill="#14A800"/>
  <path d="M15.5 11.5C14.672 11.5 14 12.172 14 13C14 13.828 14.672 14.5 15.5 14.5C16.328 14.5 17 13.828 17 13C17 12.172 16.328 11.5 15.5 11.5Z" fill="#14A800"/>
  <path d="M12 11.5C11.172 11.5 10.5 12.172 10.5 13C10.5 13.828 11.172 14.5 12 14.5C12.828 14.5 13.5 13.828 13.5 13C13.5 12.172 12.828 11.5 12 11.5Z" fill="#14A800"/>
</svg> 